<svg width="1729" height="458" viewBox="0 0 1729 458" fill="none" xmlns="http://www.w3.org/2000/svg">
<path d="M500.588 324H464.057V138.375H500.588V324ZM570.383 138.375H606.617V324H570.383V138.375ZM575.135 245.889H495.836V217.971H575.135V245.889ZM711.934 245.295V293.706H790.936V324H675.403V138.375H790.342L785.887 168.669H711.934V217.08H779.65V245.295H711.934ZM849.333 138.375H885.864V324H849.333V138.375ZM950.36 324L962.537 138.375H1011.24L1048.37 267.273H1050.45L1087.57 138.375H1136.28L1148.46 324H1112.22L1103.91 190.647H1101.83L1063.81 324H1035L996.692 190.647H994.91L986.594 324H950.36ZM1212.86 138.375H1282.95C1298.59 138.375 1311.36 139.662 1321.26 142.236C1331.16 144.81 1338.88 149.562 1344.43 156.492C1349.97 163.224 1353.83 172.629 1356.01 184.707C1358.19 196.587 1359.28 212.13 1359.28 231.336C1359.28 250.344 1358.19 265.887 1356.01 277.965C1353.83 290.043 1349.97 299.448 1344.43 306.18C1338.88 312.912 1331.16 317.565 1321.26 320.139C1311.36 322.713 1298.59 324 1282.95 324H1212.86V138.375ZM1249.39 168.075V294.3H1296.91C1305.62 294.3 1311.66 292.815 1315.02 289.845C1318.39 286.677 1320.07 281.232 1320.07 273.51V188.865C1320.07 181.143 1318.39 175.797 1315.02 172.827C1311.66 169.659 1305.62 168.075 1296.91 168.075H1249.39ZM1400.82 324L1453.98 138.375H1509.81L1562.98 324H1526.45L1483.08 172.53H1480.41L1437.35 324H1400.82ZM1429.62 285.093V257.175H1534.47V285.093H1429.62ZM1611.76 324V138.375H1648.3V293.706H1713.93V324H1611.76Z" fill="#5094CB"/>
<path fill-rule="evenodd" clip-rule="evenodd" d="M182.728 7.50584C175.626 11.6563 169.015 15.4496 168.035 15.9358C167.056 16.4211 164.355 17.9322 162.034 19.2929C159.713 20.6535 149.094 26.762 138.437 32.867C127.779 38.972 114.534 46.6861 109.002 50.0084C103.47 53.3307 98.8163 56.0492 98.6605 56.0492C98.5046 56.0492 91.0096 60.3074 82.0044 65.5113C73.0001 70.716 63.8293 75.992 61.6254 77.2368C59.4215 78.4817 55.2141 80.9536 52.2755 82.731C49.337 84.5074 38.1475 90.9499 27.4103 97.0478C16.6723 103.146 6.25392 109.702 4.2584 111.618L0.628887 115.103L0.183657 131.657C-0.0612191 140.762 -0.0612191 156.062 0.183657 165.657L0.628887 183.102L4.27799 186.583C6.28509 188.497 10.147 191.266 12.8602 192.735C17.3312 195.156 46.1964 211.691 50.4946 214.294C51.4741 214.887 52.8766 215.658 53.6112 216.008C54.3459 216.357 57.824 218.376 61.3404 220.495C64.8569 222.613 68.1631 224.346 68.6867 224.346C69.2112 224.346 69.6395 224.683 69.6395 225.093C69.6395 225.505 70.6413 226.298 71.8657 226.855C73.09 227.414 74.0918 228.237 74.0918 228.687C74.0918 229.385 58.0199 239.08 44.7066 246.413C42.5027 247.626 40.0673 249.169 39.2935 249.84C38.5206 250.51 37.4387 251.06 36.8893 251.06C36.3399 251.06 35.5518 251.665 35.1378 252.405C34.7228 253.146 33.1004 254.12 31.5314 254.57L28.6784 255.388V240.422C28.6784 228.785 28.405 225.228 27.4504 224.435C26.7746 223.874 25.991 222.262 25.7096 220.854C24.5742 215.18 14.9412 211.955 8.20314 214.994C6.28509 215.859 3.69563 218.038 2.44988 219.836L0.183657 223.107V254.73V286.355L3.07765 289.528C6.43646 293.211 8.99832 294.692 12.0072 294.692C16.8415 294.692 26.9304 290.086 43.3709 280.372C45.8197 278.926 50.6282 276.129 54.0565 274.157C57.4847 272.185 60.8907 270.193 61.6254 269.73C62.36 269.266 68.3706 265.833 74.9823 262.1C81.5939 258.366 88.2056 254.559 89.6748 253.639C91.1441 252.719 92.9473 251.686 93.6819 251.344C94.4165 251.003 98.4236 248.667 102.587 246.155C106.749 243.642 113.561 239.689 117.724 237.369C121.887 235.049 126.495 232.378 127.965 231.433C129.434 230.489 131.477 229.342 132.503 228.886C133.53 228.429 137.043 226.42 140.31 224.42C143.577 222.42 146.512 220.784 146.833 220.784C147.152 220.784 148.149 220.12 149.045 219.309C150.444 218.043 151.182 217.984 154.236 218.899C156.193 219.485 157.795 220.289 157.795 220.685C157.795 221.081 159.485 222.166 161.551 223.098C163.617 224.029 166.312 225.723 167.541 226.862L169.774 228.931L167.57 230.686C166.356 231.651 164.563 232.812 163.583 233.266C162.603 233.719 159.799 235.281 157.35 236.735C154.901 238.19 151.896 239.926 150.671 240.594C146.311 242.974 110.1 263.835 107.039 265.733C105.325 266.794 103.321 267.939 102.587 268.274C101.852 268.61 100.049 269.626 98.5794 270.532C97.1102 271.439 87.2929 277.112 76.7632 283.139C66.2335 289.166 55.2141 295.56 52.2755 297.347C49.337 299.134 46.3317 300.874 45.5971 301.213C44.8625 301.553 43.0593 302.571 41.59 303.476C40.1208 304.381 31.7059 309.222 22.8904 314.234C13.2396 319.722 5.53354 324.749 3.52288 326.868C0.424081 330.134 0.183657 330.775 0.183657 335.744C0.183657 340.416 0.540731 341.546 2.97792 344.579C4.51574 346.491 7.22007 348.783 8.98852 349.673C10.7579 350.563 13.2066 351.912 14.431 352.673C17.4532 354.551 37.274 366.195 41.1448 368.366C49.5828 373.098 87.0142 394.686 89.9188 396.495C91.7434 397.631 93.8377 398.836 94.5724 399.172C95.307 399.508 97.1102 400.519 98.5794 401.42C101.043 402.93 141.154 426.065 146.219 428.897C147.443 429.582 149.534 430.821 150.865 431.65C153.279 433.155 181.052 449.179 191.079 454.852C199.332 459.521 201.19 459.052 221.964 447.051C242.866 434.976 240.427 436.383 249.067 431.422C252.985 429.171 256.792 426.936 257.526 426.455C258.261 425.973 259.463 425.307 260.198 424.975C260.932 424.642 264.045 422.841 267.115 420.973C270.184 419.105 272.883 417.576 273.112 417.576C273.341 417.576 275.437 416.43 277.771 415.03C282.104 412.43 308.349 397.155 313.18 394.421C324.231 388.168 358.769 368.251 359.484 367.72C359.974 367.356 362.178 366.066 364.382 364.854C374.625 359.22 392.707 348.534 395.205 346.637C399.385 343.462 400 338.57 400 308.495C400 278.401 399.385 273.51 395.205 270.385C392.312 268.221 378.837 259.964 378.2 259.964C377.999 259.964 372.903 257.023 366.878 253.429C360.853 249.835 349.68 243.368 342.051 239.059C334.421 234.75 327.433 230.679 326.52 230.011C324.906 228.831 324.908 228.762 326.59 227.432C327.54 226.681 329.119 225.674 330.099 225.195C331.078 224.716 333.082 223.585 334.551 222.681C336.02 221.777 343.033 217.708 350.134 213.637C357.236 209.568 363.246 206.004 363.491 205.719C363.736 205.435 365.423 204.514 367.242 203.673C369.755 202.512 370.707 202.404 371.213 203.224C371.58 203.817 371.895 211.186 371.915 219.6C371.948 233.632 372.103 235.103 373.787 237.359C377.259 242.013 379.914 243.342 385.728 243.342C390.388 243.342 391.562 242.981 394.444 240.657C397.157 238.468 397.949 237.081 398.72 233.162C399.798 227.676 399.778 175.669 398.695 171.166C398.279 169.429 396.743 167.333 394.805 165.854C390.671 162.7 384.817 162.671 377.293 165.766C373.069 167.505 340.646 185.632 326.537 194.144C325.068 195.03 322.864 196.309 321.64 196.985C318.607 198.659 282.7 219.295 279.231 221.356C277.702 222.266 272.492 225.283 267.655 228.059C262.819 230.837 257.46 234.057 255.746 235.216C248.666 240.002 247.89 240.017 240.287 235.522C236.518 233.293 233.092 231.47 232.677 231.47C232.261 231.47 231.379 230.816 230.717 230.017C229.683 228.773 229.763 228.384 231.275 227.294C233.019 226.037 258.877 210.909 261.214 209.778C261.879 209.457 263.826 208.348 265.541 207.315C267.255 206.282 279.811 199.057 293.443 191.258C316.982 177.792 322.549 174.565 326.571 172.054C327.532 171.454 332.325 168.685 337.223 165.903C365.053 150.084 390.733 135.066 394.428 132.448C397.996 129.919 399.493 125.112 398.805 118.393C398.382 114.269 397.846 113.121 395.368 111.028C393.753 109.664 390.828 107.741 388.869 106.756C386.91 105.769 384.105 104.179 382.636 103.222C381.167 102.265 379.364 101.201 378.629 100.856C377.894 100.513 372.767 97.5028 367.236 94.168C361.703 90.8342 357.052 88.1058 356.9 88.1058C356.748 88.1058 353.059 86.047 348.703 83.5297C344.348 81.0133 338.981 77.9421 336.777 76.7043C334.573 75.4666 331.712 73.8184 330.419 73.0428C325.182 69.9003 281.175 44.3165 276.671 41.7957C266.436 36.0682 258.37 31.4138 253.326 28.3266C250.232 26.4326 247.497 24.8832 247.249 24.8832C247 24.8832 244.303 23.3275 241.253 21.4273C238.204 19.5262 230.1 14.772 223.244 10.8611C198.794 -3.08262 200.588 -2.93391 182.728 7.50584ZM209.887 36.4725C213.805 38.8117 218.413 41.5232 220.127 42.4964C227.002 46.402 258.144 64.4454 260.643 65.9716C262.112 66.8692 264.116 67.9974 265.095 68.4792C266.075 68.9618 268.762 70.4693 271.068 71.83C277.524 75.6402 314.458 96.9855 318.968 99.5126C321.172 100.748 324.039 102.393 325.34 103.169C326.641 103.944 333.955 108.18 341.591 112.581C349.229 116.982 355.474 120.989 355.471 121.486C355.468 121.982 351.962 124.355 347.679 126.757C343.398 129.16 336.288 133.223 331.88 135.786C327.472 138.349 314.85 145.646 303.83 152.002C292.811 158.358 281.992 164.603 279.788 165.88C277.584 167.158 273.978 169.226 271.774 170.477C269.57 171.728 265.949 173.841 263.729 175.174C249.631 183.633 247.889 184.421 245.769 183.31C243.486 182.112 220.286 168.877 216.12 166.395C200.656 157.181 199.248 157.186 183.275 166.513L172.038 173.074L174.488 175.031C175.837 176.106 180.671 179.128 185.231 181.744C189.791 184.361 194.599 187.136 195.916 187.912C197.233 188.688 200.314 190.431 202.763 191.786C212.362 197.095 217.53 200.526 217.24 201.395C217.074 201.895 215.351 203.239 213.412 204.382C211.473 205.524 208.885 207.063 207.661 207.801C206.436 208.54 204.102 209.777 202.475 210.551C199.211 212.103 200.876 212.792 183.105 202.53C180.561 201.061 175.929 198.402 172.813 196.621C169.695 194.84 161.936 190.327 155.569 186.591C149.202 182.855 134.176 174.165 122.177 167.279C110.178 160.394 99.7593 154.395 99.0247 153.948C93.0256 150.302 74.2236 139.411 69.1943 136.67C65.766 134.801 58.5889 130.659 53.2453 127.465L43.5303 121.657L45.6683 119.925C46.8437 118.974 49.6131 117.224 51.8214 116.038C54.0306 114.852 57.0395 113.096 58.5088 112.135C59.978 111.174 61.7812 110.083 62.5158 109.71C66.498 107.688 104.354 85.9767 114.936 79.6464C118.227 77.6776 131.565 69.9787 148.301 60.3858C158.016 54.8177 167.032 49.564 168.336 48.7127C169.64 47.8615 171.204 46.9176 171.813 46.6166C172.421 46.3156 178.832 42.7102 186.06 38.6051C195.214 33.4066 199.742 31.3052 200.982 31.68C201.962 31.9757 205.969 34.1324 209.887 36.4725ZM192.451 57.2042C190.287 58.3288 180.301 63.9948 170.261 69.7944C144.35 84.7621 124.854 95.9997 108.143 105.601C100.179 110.175 92.0729 114.923 90.129 116.15C88.1842 117.377 86.2849 118.383 85.9082 118.386C85.5306 118.389 84.1041 119.29 82.7364 120.389L80.2502 122.388L84.9625 125.49C87.5547 127.196 91.0773 129.364 92.7915 130.31C98.8804 133.667 99.5109 134.037 103.237 136.436C105.309 137.77 107.257 138.862 107.567 138.862C108.215 138.862 117.767 133.492 136.869 122.388C154.884 111.918 189.185 92.0942 195.031 88.7754C200.453 85.6971 199.275 85.4041 212.113 93.0283C216.276 95.5011 225.612 100.915 232.861 105.058C240.109 109.203 247.121 113.231 248.444 114.01C265.95 124.323 291.443 138.862 292.019 138.862C292.254 138.862 297.112 136.191 302.813 132.927C321.615 122.162 321.359 122.405 316.502 119.924C313.762 118.524 272.786 94.9855 268.657 92.4397C267.188 91.5341 265.385 90.518 264.65 90.1823C263.916 89.8466 261.912 88.7042 260.198 87.6445C258.484 86.5849 247.464 80.1843 235.71 73.4212C223.956 66.6582 213.137 60.3947 211.668 59.5033C203.563 54.5853 198.626 53.995 192.451 57.2042ZM42.0353 154.061C46.6879 156.808 56.2978 162.426 63.3903 166.545C70.4837 170.665 77.0953 174.519 78.0828 175.11C79.0713 175.701 80.6812 176.592 81.6607 177.089C82.6402 177.585 85.3223 179.105 87.6214 180.466C100.207 187.915 111.35 194.07 112.249 194.07C112.812 194.07 113.272 194.371 113.273 194.738C113.274 195.105 115.277 196.531 117.725 197.907C120.173 199.281 122.177 200.754 122.177 201.18C122.177 201.606 121.074 202.506 119.728 203.179C118.381 203.853 114.378 206.13 110.831 208.239L104.384 212.073L91.4406 204.63C84.3223 200.536 76.4043 196.071 73.846 194.707C71.2877 193.344 67.9922 191.446 66.5229 190.491C65.0536 189.535 63.0501 188.359 62.0706 187.876C61.0911 187.393 58.2861 185.796 55.8374 184.328C53.3886 182.86 48.5801 180.026 45.1519 178.031C41.7236 176.035 38.1324 173.919 37.1716 173.328C36.2108 172.738 33.9063 171.348 32.0514 170.239L28.6784 168.225V157.57V146.914L31.1271 147.99C32.4744 148.582 37.3826 151.314 42.0353 154.061ZM204.025 247.579C207.518 249.708 235.484 265.916 238.827 267.749C240.051 268.419 242.143 269.647 243.475 270.477C248.26 273.459 279.379 291.348 291.364 298.008C292.588 298.688 294.673 299.923 295.997 300.753C297.32 301.583 304.298 305.667 311.501 309.83C318.705 313.993 326.437 318.49 328.684 319.823C330.932 321.156 334.974 323.452 337.668 324.925C340.361 326.399 344.569 328.81 347.018 330.281C349.466 331.754 352.371 333.429 353.473 334.004C354.576 334.579 355.477 335.488 355.477 336.023C355.477 336.559 349.767 340.266 342.788 344.261C335.809 348.255 325.09 354.427 318.968 357.976C312.846 361.524 306.635 365.105 305.166 365.932C302.181 367.613 277.887 381.616 264.205 389.541C259.307 392.378 253.497 395.691 251.293 396.903C249.089 398.115 246.654 399.656 245.88 400.328C245.107 400.998 244.17 401.548 243.797 401.548C243.218 401.548 231.749 408.097 210.93 420.318C201.546 425.825 199.375 426.74 197.886 425.809C195.079 424.057 162.788 405.352 136.424 390.207C121.487 381.626 108.864 374.31 108.375 373.949C107.885 373.587 105.681 372.285 103.477 371.056C101.273 369.827 92.0568 364.516 82.9964 359.256C73.936 353.995 64.4179 348.54 61.8444 347.133C59.271 345.727 55.5729 343.571 53.6255 342.341C51.678 341.112 49.776 340.104 49.3994 340.101C49.0218 340.099 47.5267 339.147 46.0753 337.986L43.436 335.874L48.4813 332.647C51.256 330.873 53.7528 329.42 54.0315 329.42C54.3094 329.42 56.0315 328.482 57.8587 327.335C59.6851 326.187 63.5844 323.907 66.5229 322.266C76.4604 316.717 93.3106 306.99 100.768 302.496C102.993 301.155 105.384 299.783 106.082 299.447C106.781 299.11 111.789 296.257 117.213 293.107C122.637 289.956 131.883 284.586 137.76 281.173C143.637 277.759 149.125 274.511 149.955 273.955C151.582 272.868 153.21 273.494 161.554 278.412C163.866 279.775 172.65 284.841 181.073 289.671C199.739 300.372 199.825 300.38 213.475 292.611C218.359 289.832 223.52 286.626 224.945 285.485L227.538 283.411L222.274 280.37C219.379 278.697 216.32 276.928 215.476 276.438C214.632 275.948 206.709 271.37 197.867 266.264C189.027 261.158 181.909 256.635 182.049 256.213C182.407 255.137 198.02 245.903 199.647 245.804C200.381 245.76 202.352 246.559 204.025 247.579ZM304.766 250.705C309.394 253.447 320.593 259.93 329.654 265.11C338.714 270.289 349.647 276.66 353.95 279.267C358.253 281.874 361.953 284.007 362.173 284.007C362.394 284.007 364.53 285.211 366.92 286.682L371.268 289.356L371.707 298.47C372.274 310.25 371.756 311.186 366.283 308.276C364.041 307.084 361.131 305.343 359.817 304.407C358.504 303.472 357.241 302.707 357.012 302.707C356.783 302.707 352.637 300.44 347.799 297.67C342.962 294.901 337.533 291.795 335.736 290.769C333.939 289.743 329.731 287.246 326.386 285.22C323.041 283.193 318.3 280.421 315.852 279.06C313.403 277.698 307.593 274.374 302.94 271.673C298.287 268.972 293.017 265.934 291.228 264.922C280.596 258.905 277.923 257.098 278.237 256.138C278.623 254.957 293.821 245.717 295.378 245.717C295.914 245.717 300.139 247.961 304.766 250.705ZM92.9339 326.826C85.4211 331.266 79.4105 335.034 79.577 335.199C79.9029 335.52 105.793 350.518 112.334 354.174C118.489 357.614 125.158 361.426 126.629 362.345C128.771 363.684 148.068 374.882 152.452 377.331C156.076 379.356 159.565 381.383 164.507 384.338C172.124 388.891 189.255 398.735 192.451 400.394C199.051 403.821 202.974 403.066 214.339 396.181C216.788 394.697 219.593 393.089 220.572 392.606C221.552 392.125 223.555 391 225.025 390.108C226.494 389.216 229.7 387.372 232.148 386.01C234.597 384.648 241.209 380.841 246.841 377.549C252.473 374.256 259.423 370.195 262.286 368.523C265.149 366.852 269.557 364.354 272.081 362.973C274.605 361.593 278.475 359.362 280.678 358.017C282.882 356.673 285.287 355.285 286.021 354.933C286.756 354.581 290.587 352.403 294.537 350.093C298.485 347.783 305.589 343.69 310.323 340.996C315.056 338.303 318.938 335.608 318.949 335.009C318.959 334.409 317.666 333.255 316.074 332.444C314.482 331.633 308.446 328.15 302.659 324.704L292.139 318.437L288.412 320.349C283.773 322.731 278.637 325.68 274 328.624C272.041 329.868 269.837 331.163 269.102 331.5C268.368 331.839 265.947 333.212 263.722 334.552C261.498 335.892 255.487 339.344 250.365 342.221C245.243 345.098 235.443 350.764 228.587 354.811C221.73 358.858 214.117 363.268 211.668 364.61C209.219 365.952 206.614 367.572 205.878 368.209C205.143 368.845 203.373 369.811 201.946 370.354C199.601 371.245 198.661 370.94 192.203 367.187C188.272 364.903 183.631 362.227 181.888 361.239C180.146 360.252 177.519 358.702 176.049 357.797C174.58 356.891 172.777 355.875 172.042 355.539C171.308 355.204 169.304 354.058 167.59 352.995C164.165 350.872 142.76 338.451 136.471 334.94C134.292 333.724 130.686 331.66 128.457 330.353C126.227 329.045 123.802 327.696 123.067 327.353C122.332 327.01 120.529 325.943 119.06 324.982C115.365 322.565 108.135 318.733 107.291 318.744C106.907 318.749 100.447 322.386 92.9339 326.826Z" fill="url(#paint0_linear_107_8)"/>
<defs>
<linearGradient id="paint0_linear_107_8" x1="200" y1="0" x2="200" y2="457.601" gradientUnits="userSpaceOnUse">
<stop stop-color="#7170AC"/>
<stop offset="0.51" stop-color="#5093CB"/>
<stop offset="1" stop-color="#6D74AE"/>
</linearGradient>
</defs>
</svg>
